<svg xmlns="http://www.w3.org/2000/svg" width="36" height="36" viewBox="0 0 36 36"><path d="M32.143,32H3.857A3.858,3.858,0,0,0,0,35.857V64.143A3.858,3.858,0,0,0,3.857,68H32.143A3.858,3.858,0,0,0,36,64.143V35.857A3.858,3.858,0,0,0,32.143,32Zm-9.86,30.833c-.675.121-.924-.3-.924-.643,0-.434.016-2.652.016-4.444a3.131,3.131,0,0,0-.908-2.467c2.973-.329,6.107-.739,6.107-5.874A4.126,4.126,0,0,0,25.2,46.271a5.026,5.026,0,0,0-.137-3.616c-1.117-.346-3.672,1.438-3.672,1.438a12.641,12.641,0,0,0-6.686,0s-2.555-1.784-3.672-1.438a4.987,4.987,0,0,0-.137,3.616,4.036,4.036,0,0,0-1.254,3.134c0,5.111,3,5.545,5.971,5.874a2.913,2.913,0,0,0-.852,1.792,2.819,2.819,0,0,1-3.881-1.117A2.8,2.8,0,0,0,8.831,54.58c-1.3-.016-.088.82-.088.82.868.4,1.479,1.945,1.479,1.945.779,2.387,4.508,1.583,4.508,1.583,0,1.117.016,2.933.016,3.263,0,.346-.241.763-.924.643A13.332,13.332,0,0,1,4.805,50.113,12.752,12.752,0,0,1,17.823,37.135,13.037,13.037,0,0,1,31.179,50.112,13.209,13.209,0,0,1,22.283,62.833ZM14.4,57.923c-.153.032-.3-.032-.313-.137-.016-.121.088-.225.241-.257.153-.016.3.048.313.153s-.08.209-.241.241Zm-.763-.072c0,.1-.121.193-.281.193-.177.016-.3-.072-.3-.193,0-.1.121-.193.281-.193C13.492,57.642,13.637,57.73,13.637,57.851Zm-1.1-.088c-.032.1-.193.153-.329.1-.153-.032-.257-.153-.225-.257s.193-.153.329-.121c.161.048.265.169.225.273Zm-.988-.434c-.072.088-.225.072-.346-.048-.121-.1-.153-.257-.072-.329.072-.088.225-.072.346.048C11.579,57.1,11.62,57.264,11.547,57.329Zm-.731-.731c-.072.048-.209,0-.3-.121s-.088-.257,0-.313c.088-.072.225-.016.3.1A.235.235,0,0,1,10.816,56.6Zm-.522-.779c-.072.072-.193.032-.281-.048-.088-.1-.1-.225-.032-.281.072-.072.193-.032.281.048C10.35,55.641,10.366,55.762,10.294,55.818Zm-.538-.595a.151.151,0,0,1-.225.032c-.1-.048-.153-.137-.121-.209a.189.189,0,0,1,.225-.032C9.739,55.071,9.787,55.159,9.755,55.223Z" transform="translate(0 -32)" fill="#fc3"/></svg>