<svg xmlns="http://www.w3.org/2000/svg" width="60" height="60" viewBox="0 0 60 60"><path d="M13.472,72.479c6.5.443,7.9.283,7.9,1.6,0,2.679-8.779,2.687-8.779.2a3.02,3.02,0,0,1,.884-1.8Zm3.743-15.621c-4.325,0-4.52,5.956-.1,5.956A2.985,2.985,0,1,0,17.215,56.857ZM60,38.429V85.571A6.429,6.429,0,0,1,53.571,92H6.429A6.429,6.429,0,0,1,0,85.571V38.429A6.429,6.429,0,0,1,6.429,32H53.571A6.429,6.429,0,0,1,60,38.429ZM29.6,47.711a2.794,2.794,0,0,0,3.062,3.064,2.805,2.805,0,0,0,3.1-3.064c0-1.941-1.121-2.988-3.1-2.988A2.741,2.741,0,0,0,29.6,47.711ZM26.676,53.83H20.04c-3.348-.877-10.923-.65-10.923,6.261a5.435,5.435,0,0,0,2.926,5.1c-2.1,1.925-3.1,2.831-3.1,4.117a2.266,2.266,0,0,0,1.5,2.245C9.252,72.682,8.569,73.5,8.569,75.029c0,2.688,2.35,4.248,8.51,4.248,5.922,0,9.358-2.211,9.358-6.125,0-4.911-3.781-4.73-12.692-5.274l1.122-1.8c2.277.635,9.936.834,9.936-5.683a5.4,5.4,0,0,0-1.259-3.438l3.131-.238Zm11.3,14.711L36.23,68.3c-.512-.068-.545-.134-.545-.682V53.5H28.641l-.374,2.755c2.109.743,2.277.651,2.277,1.362v10.01c0,.753-.042.613-2.277.92v2.687h9.7ZM51.429,69.9l-.92-3c-5.482,2.058-5.069-1.662-5.069-2.241V56.533h5.069v-3.4h-4.8c-.384,0-.268.338-.268-5.174H42.2c-.374,3.71-1.564,5.207-4.554,5.547v3.029c2.742,0,2.654-.114,2.654.34v8.916c0,3.846,1.531,5.479,5.581,5.479A13.522,13.522,0,0,0,51.429,69.9Z" transform="translate(0 -32)" fill="#333"/></svg>