<svg xmlns="http://www.w3.org/2000/svg" width="60" height="52.503" viewBox="0 0 60 52.503"><path d="M49.008,49.027q-.949-.316-1.9-.6c.105-.434.2-.867.293-1.3,1.441-6.984.492-12.6-2.707-14.449-3.082-1.77-8.109.07-13.2,4.5-.5.434-1,.891-1.465,1.348-.316-.3-.645-.609-.973-.9C23.73,32.89,18.387,30.9,15.187,32.761c-3.07,1.781-3.984,7.066-2.7,13.676.129.656.27,1.3.434,1.957-.75.211-1.488.445-2.18.691C4.488,51.253,0,54.675,0,58.214c0,3.656,4.781,7.324,11.285,9.551.527.176,1.055.352,1.594.5-.176.7-.328,1.395-.469,2.109-1.23,6.5-.27,11.66,2.8,13.43,3.164,1.828,8.484-.047,13.664-4.582.41-.363.82-.738,1.23-1.137.516.5,1.055.984,1.594,1.453,5.016,4.313,9.973,6.059,13.031,4.289C47.895,82,48.926,76.46,47.59,69.71q-.158-.773-.352-1.582c.375-.105.738-.223,1.1-.34C55.1,65.55,60,61.929,60,58.214,60,54.663,55.383,51.218,49.008,49.027ZM33.152,39.077c4.359-3.8,8.426-5.285,10.277-4.219,1.98,1.137,2.742,5.73,1.5,11.766-.082.4-.164.785-.27,1.172a59.991,59.991,0,0,0-7.887-1.242,59.209,59.209,0,0,0-4.992-6.223C32.238,39.9,32.684,39.488,33.152,39.077ZM19.594,64.3c.6,1.02,1.207,2.039,1.852,3.035a53.067,53.067,0,0,1-5.437-.879,54.742,54.742,0,0,1,1.91-5.215c.539,1.031,1.09,2.051,1.676,3.059ZM16.043,50.2c1.687-.375,3.48-.68,5.344-.914-.621.973-1.23,1.969-1.8,2.977s-1.137,2.016-1.664,3.047c-.738-1.746-1.359-3.457-1.875-5.109Zm3.211,8.074c.773-1.617,1.617-3.2,2.508-4.758s1.852-3.07,2.859-4.559c1.758-.129,3.551-.2,5.379-.2s3.633.07,5.379.2q1.494,2.215,2.848,4.535t2.543,4.734q-1.178,2.426-2.531,4.781c-.891,1.559-1.84,3.07-2.836,4.57-1.746.129-3.562.187-5.4.187s-3.621-.059-5.344-.164q-1.529-2.232-2.883-4.57c-.9-1.559-1.734-3.141-2.52-4.758Zm21.164,6c.6-1.031,1.16-2.074,1.711-3.129a54.4,54.4,0,0,1,1.98,5.191,51.473,51.473,0,0,1-5.508.938C39.234,66.288,39.832,65.281,40.418,64.273Zm1.688-8.965c-.551-1.031-1.113-2.062-1.7-3.07s-1.172-1.98-1.793-2.953a53.926,53.926,0,0,1,5.379.938A51.863,51.863,0,0,1,42.105,55.308ZM30.023,42.124a51.46,51.46,0,0,1,3.469,4.2c-2.32-.105-4.652-.105-6.973,0C27.668,44.808,28.852,43.4,30.023,42.124ZM16.43,34.941c1.969-1.148,6.34.492,10.945,4.57.293.258.586.539.891.82a59.537,59.537,0,0,0-5.027,6.223,61.773,61.773,0,0,0-7.875,1.219c-.152-.6-.281-1.207-.41-1.816-1.1-5.672-.375-9.949,1.477-11.016ZM13.559,65.831c-.492-.141-.973-.293-1.453-.457a23.9,23.9,0,0,1-7.383-3.656,5.258,5.258,0,0,1-2.2-3.5c0-2.145,3.7-4.887,9.047-6.75.668-.234,1.348-.445,2.027-.645a62.314,62.314,0,0,0,2.871,7.453A64.057,64.057,0,0,0,13.559,65.831ZM27.223,77.316a21.449,21.449,0,0,1-6.609,4.137,5.187,5.187,0,0,1-4.137.152c-1.863-1.078-2.637-5.215-1.582-10.781.129-.656.27-1.312.434-1.957a58.625,58.625,0,0,0,7.957,1.148,61.842,61.842,0,0,0,5.063,6.258c-.375.363-.75.715-1.125,1.043Zm2.871-2.848c-1.2-1.289-2.391-2.719-3.551-4.254,1.125.047,2.285.07,3.457.07,1.207,0,2.391-.023,3.563-.082A50.537,50.537,0,0,1,30.094,74.468ZM45.41,77.984a5.208,5.208,0,0,1-1.934,3.668c-1.863,1.078-5.836-.328-10.125-4.008-.492-.422-.984-.879-1.488-1.348a57.972,57.972,0,0,0,4.945-6.281,57.766,57.766,0,0,0,7.992-1.23c.117.48.223.961.316,1.43A21.362,21.362,0,0,1,45.41,77.984Zm2.133-12.6c-.328.105-.656.211-1,.3a59.532,59.532,0,0,0-2.988-7.477,59.233,59.233,0,0,0,2.871-7.371c.609.176,1.2.363,1.758.551,5.461,1.875,9.293,4.664,9.293,6.8C57.48,60.488,53.391,63.452,47.543,65.386ZM30,63.628a5.367,5.367,0,1,0-5.367-5.367A5.366,5.366,0,0,0,30,63.628Z" transform="translate(0 -32.013)" fill="#333"/></svg>