<svg xmlns="http://www.w3.org/2000/svg" width="60" height="45.004" viewBox="0 0 60 45.004"><path d="M28.3,50.028C28.273,50.084,28.245,50.129,28.3,50.028Zm23.356-8.156a12.3,12.3,0,0,0-5.438,1.266A11.547,11.547,0,0,1,45,40.315a7.533,7.533,0,0,1-.1-2.372,19.975,19.975,0,0,1,.713-2.55c-.009-.1-.131-.619-1.341-.628s-2.25.234-2.371.553a11.515,11.515,0,0,0-.5,1.791c-.216,1.1-2.418,5.016-3.665,7.059a7.279,7.279,0,0,1-.834-2.063,7.533,7.533,0,0,1-.1-2.372,19.973,19.973,0,0,1,.713-2.55c-.009-.1-.131-.619-1.34-.628s-2.25.234-2.372.553-.253,1.069-.5,1.791-3.177,7.247-3.945,8.944c-.394.863-.731,1.556-.975,2.025-.038.075-.066.122-.084.159.028-.047.047-.094.047-.075-.206.4-.328.628-.328.628v.009c-.159.3-.338.572-.422.572a3.889,3.889,0,0,1,.028-1.866c.441-2.269,1.481-5.794,1.472-5.916-.009-.066.2-.675-.684-1a1.1,1.1,0,0,0-1.238.206c-.075,0-.131.188-.131.188S27.99,38.8,25.225,38.8c-1.725,0-4.125,1.894-5.3,3.609-.741.4-2.344,1.275-4.031,2.2l-1.941,1.069c-.047-.047-.084-.094-.131-.141-3.355-3.581-9.55-6.113-9.288-10.922.094-1.753.7-6.356,11.913-11.944,9.188-4.575,16.533-3.319,17.8-.525,1.819,3.984-3.927,11.4-13.468,12.469-3.637.4-5.548-1-6.026-1.528-.5-.553-.572-.581-.759-.478-.309.169-.113.656,0,.947a5.649,5.649,0,0,0,3.449,2.709c1.753.572,6.017.891,11.172-1.106,5.792-2.231,10.3-8.447,8.979-13.65-1.346-5.288-10.114-7.022-18.4-4.078a41.7,41.7,0,0,0-14.125,8.1c-4.565,4.275-5.3,8-5,9.553,1.068,5.522,8.679,9.122,11.725,11.785-.15.084-.291.159-.422.234-1.527.759-7.329,3.8-8.782,7-1.641,3.638.272,6.244,1.527,6.6A9.36,9.36,0,0,0,14.2,56.619a10.151,10.151,0,0,0,.9-9.328c-.009-.028-.028-.047-.037-.075.394-.234.8-.469,1.2-.7.777-.459,1.537-.881,2.2-1.247a14.562,14.562,0,0,0-.788,3.994,8.3,8.3,0,0,0,1.791,5.784,1.968,1.968,0,0,0,1.443.469c1.294,0,1.875-1.069,2.521-2.344.8-1.556,1.5-3.366,1.5-3.366S24.046,54.7,26.455,54.7c.88,0,1.762-1.134,2.156-1.716v.009s.019-.038.066-.113c.094-.141.141-.225.141-.225v-.028c.356-.609,1.134-2.006,2.305-4.313,1.519-2.981,2.971-6.7,2.971-6.7a18.867,18.867,0,0,0,.581,2.419,22.645,22.645,0,0,0,1.256,2.813c-.356.488-.572.769-.572.769a.029.029,0,0,0,.009.019c-.281.375-.6.778-.928,1.172a33.092,33.092,0,0,0-2.813,3.525.958.958,0,0,0,.263,1.284,2.279,2.279,0,0,0,1.471.234,6.5,6.5,0,0,0,2.2-.506,7.706,7.706,0,0,0,1.893-.994,4.232,4.232,0,0,0,1.819-3.731,7.764,7.764,0,0,0-.684-2.644c.1-.15.216-.309.319-.469a49.839,49.839,0,0,0,3.29-5.683,18.866,18.866,0,0,0,.581,2.419,16.535,16.535,0,0,0,1.068,2.409,10.305,10.305,0,0,0-3.2,4.134c-.694,2-.15,2.9.872,3.1a3.146,3.146,0,0,0,1.6-.328,7.449,7.449,0,0,0,2.024-1.041,4.53,4.53,0,0,0,2.23-3.713,6.974,6.974,0,0,0-.506-2.194,11.443,11.443,0,0,1,5.821-.675c5.22.609,6.242,3.872,6.045,5.231a3.466,3.466,0,0,1-1.659,2.344c-.366.225-.478.309-.45.478.047.244.216.234.525.178A4.073,4.073,0,0,0,60,48.535c.15-3.188-2.915-6.694-8.344-6.666ZM11.421,55.437c-1.724,1.884-4.143,2.6-5.183,2-1.116-.649-.675-3.422,1.452-5.43a27.778,27.778,0,0,1,4.068-3.038c.253-.15.619-.375,1.069-.647.075-.047.113-.066.113-.066.084-.056.178-.1.272-.159a7.483,7.483,0,0,1-1.791,7.341Zm12.6-8.569c-.6,1.472-1.865,5.222-2.633,5.025-.656-.169-1.059-3.028-.131-5.841a12.93,12.93,0,0,1,2.053-3.759c.946-1.059,1.987-1.4,2.23-.975.328.553-1.144,4.631-1.519,5.55Zm10.406,4.969c-.253.131-.488.216-.6.15-.084-.047.1-.225.1-.225s1.3-1.4,1.819-2.034c.3-.375.647-.816,1.021-1.3,0,.047.009.094.009.15-.012,1.678-1.624,2.813-2.355,3.263Zm8.023-1.828c-.188-.131-.159-.572.469-1.941a7.287,7.287,0,0,1,1.781-2.3,3.392,3.392,0,0,1,.178,1.013,3.305,3.305,0,0,1-2.427,3.225Z" transform="translate(-0.004 -16.004)" fill="#333"/></svg>