<svg xmlns="http://www.w3.org/2000/svg" width="60" height="60" viewBox="0 0 60 60"><path d="M0,32V92H60V32ZM32.652,78.795c0,5.839-3.429,8.5-8.424,8.5a8.759,8.759,0,0,1-8.464-5.156l4.594-2.772c.884,1.567,1.688,2.893,3.629,2.893,1.848,0,3.027-.723,3.027-3.549V59.549h5.638Zm13.339,8.5c-5.237,0-8.625-2.491-10.272-5.759l4.594-2.652c1.205,1.969,2.786,3.429,5.558,3.429,2.33,0,3.83-1.165,3.83-2.786,0-1.929-1.527-2.612-4.112-3.75l-1.406-.6c-4.071-1.728-6.763-3.911-6.763-8.5,0-4.232,3.228-7.446,8.25-7.446,3.589,0,6.161,1.246,8.009,4.513l-4.393,2.813c-.964-1.728-2.009-2.411-3.629-2.411a2.447,2.447,0,0,0-2.692,2.411c0,1.688,1.045,2.371,3.469,3.429l1.406.6c4.795,2.049,7.487,4.152,7.487,8.866,0,5.063-3.991,7.848-9.335,7.848Z" transform="translate(0 -32)" fill="#333"/></svg>